HIERARCHY
ROOT Hips
{
  OFFSET 3.13124 94.3669 -3.18751
  CHANNELS  6 Xposition Yposition Zposition Zrotation Xrotation Yrotation
  JOINT LeftUpLeg
  {
    OFFSET 8.64259 1.95398 -2.38835
    CHANNELS 3 Zrotation Xrotation Yrotation
    JOINT LeftLeg
    {
      OFFSET 43.7702 0 0
      CHANNELS 3 Zrotation Xrotation Yrotation
      JOINT LeftFoot
      {
        OFFSET 40.6238 0 0
        CHANNELS 3 Zrotation Xrotation Yrotation
        JOINT LeftToeBase
        {
          OFFSET 12.7242 0 0
          CHANNELS 3 Zrotation Xrotation Yrotation
          End Site
          {
            OFFSET 0 0 0
          }
        }
      }
    }
  }
  JOINT RightUpLeg
  {
    OFFSET -8.2249 1.95398 -2.59336
    CHANNELS 3 Zrotation Xrotation Yrotation
    JOINT RightLeg
    {
      OFFSET 43.5653 0 0
      CHANNELS 3 Zrotation Xrotation Yrotation
      JOINT RightFoot
      {
        OFFSET 40.6238 0 0
        CHANNELS 3 Zrotation Xrotation Yrotation
        JOINT RightToeBase
        {
          OFFSET 12.7242 0 0
          CHANNELS 3 Zrotation Xrotation Yrotation
          End Site
          {
            OFFSET 0 0 0
          }
        }
      }
    }
  }
  JOINT Spine
  {
    OFFSET 0.165834 0.87714 6.61349
    CHANNELS 3 Zrotation Xrotation Yrotation
    JOINT Spine1
    {
      OFFSET 7.38962 1.71661e-005 0
      CHANNELS 3 Zrotation Xrotation Yrotation
      JOINT Spine2
      {
        OFFSET 11.9445 1.14441e-005 0
        CHANNELS 3 Zrotation Xrotation Yrotation
        JOINT Spine3
        {
          OFFSET 14.7254 4.19617e-005 0
          CHANNELS 3 Zrotation Xrotation Yrotation
          JOINT Spine4
          {
            OFFSET 10.9679 0 0
            CHANNELS 3 Zrotation Xrotation Yrotation
            JOINT RightShoulder
            {
              OFFSET 2.46616 -1.6653 3.69651
              CHANNELS 3 Zrotation Xrotation Yrotation
              JOINT RightArm
              {
                OFFSET 13.0012 0 0
                CHANNELS 3 Zrotation Xrotation Yrotation
                JOINT RightForeArm
                {
                  OFFSET 28.7848 1.52588e-005 0
                  CHANNELS 3 Zrotation Xrotation Yrotation
                  JOINT RightHand
                  {
                    OFFSET 26.5688 1.52588e-005 0
                    CHANNELS 3 Zrotation Xrotation Yrotation
                    End Site
                    {
                      OFFSET 0 0 0
                    }
                  }
                }
              }
            }
            JOINT LeftShoulder
            {
              OFFSET 2.38034 -1.29275 -3.75231
              CHANNELS 3 Zrotation Xrotation Yrotation
              JOINT LeftArm
              {
                OFFSET 16.3182 6.10352e-005 0
                CHANNELS 3 Zrotation Xrotation Yrotation
                JOINT LeftForeArm
                {
                  OFFSET 27.0901 0 0
                  CHANNELS 3 Zrotation Xrotation Yrotation
                  JOINT LeftHand
                  {
                    OFFSET 24.5451 1.52588e-005 0
                    CHANNELS 3 Zrotation Xrotation Yrotation
                    End Site
                    {
                      OFFSET 0 0 0
                    }
                  }
                }
              }
            }
            JOINT Neck
            {
              OFFSET 5.0226 -0.0266342 0
              CHANNELS 3 Zrotation Xrotation Yrotation
              JOINT Head
              {
                OFFSET 6.69363 2.86102e-005 0
                CHANNELS 3 Zrotation Xrotation Yrotation
                End Site
                {
                  OFFSET 0 0 0
                }
              }
            }
          }
        }
      }
    }
  }
}
MOTION
Frames:	12
Frame Time:	0.0333333
-94.881 84.9538 -129.265 173.86 -85.2339 167.876 -173.985 39.2694 83.5028 -64.809 -14.8659 1.85821 45.9992 4.63217 2.94614 28.7808 5.48165e-006 3.92305e-006 -178.296 28.8504 82.7189 -43.6387 13.5922 0.364704 74.6823 23.165 10.2411 28.7808 1.43713e-005 2.75681e-005 -0.507608 12.9931 -85.9093 0.948837 2.07462 -0.504461 -10.7206 2.05041 -0.59532 -33.269 2.13027 0.142657 -13.2564 2.13027 0.142647 89.0973 -15.6416 -116.004 25.9366 21.4165 -69.8147 0.0388225 0.291899 -67.5141 -5.37983 -0.320016 -0.0162396 -88.4946 -22.1021 73.4598 47.8056 32.1235 -67.9397 59.514 12.73 -72.1208 106.539 18.3648 9.30591 77.6827 3.73265 3.14333 -25.0744 -1.74466 8.3452 
-95.0973 84.1959 -129.295 -168.76 -83.6043 -174.808 -173.991 39.0128 83.4068 -66.9514 -13.497 3.22357 45.006 5.42421 3.61265 28.7808 5.48165e-006 3.92305e-006 -178.246 28.6897 83.2694 -45.9286 12.7923 0.284709 76.306 23.1329 9.79916 28.7808 1.43713e-005 2.75681e-005 -0.801659 13.2691 -85.7551 0.348203 1.42772 -0.5106 -11.3221 1.40387 -0.572956 -33.8635 1.51516 -0.0578078 -13.8508 1.51516 -0.057807 83.1159 -24.876 -123.191 14.5605 18.2668 -50.7307 0.118903 -0.277011 -63.4182 -5.37983 -0.320016 -0.0162396 -88.8713 -23.3501 73.1447 45.2703 29.2444 -68.1498 -21.9469 -10.6941 -82.4978 106.196 -29.2858 -25.9619 74.5674 6.18291 2.08073 -24.9559 1.28669 9.59104 
-95.1712 83.7881 -129.206 -158.503 -81.936 -164.9 -173.981 39.2186 82.5849 -68.6577 -10.8802 5.28468 40.3827 5.78365 4.08976 28.7808 5.48165e-006 3.92305e-006 -178.202 28.0238 83.5169 -46.8473 12.5188 0.251049 77.9334 22.0586 8.91578 28.7808 1.43713e-005 2.75681e-005 -1.16198 13.4326 -85.4389 -0.0362723 0.812456 -0.465865 -11.7071 0.791174 -0.501185 -34.2441 0.914907 -0.20013 -14.2315 0.914903 -0.200149 77.5188 -33.8031 -127.912 8.25027 17.8145 -35.8679 0.183416 -0.317364 -63.6678 -5.37983 -0.320016 -0.0162396 -90.2791 -23.87 70.4171 38.7251 27.0754 -65.8818 19.836 -4.67444 -64.4145 -18.8404 6.49799 -53.686 70.6779 8.5095 0.609707 -24.8535 4.28533 11.9429 
-95.1482 83.6283 -128.826 -150.09 -80.7176 -156.704 -174.133 38.7389 82.0661 -69.5974 -8.31494 7.46985 38.7799 3.95919 2.48952 28.7808 5.48165e-006 3.92305e-006 -178.226 27.4329 83.7457 -46.9852 12.6545 0.256075 79.3299 21.3341 8.27534 28.7808 1.43713e-005 2.75681e-005 -1.50222 13.4078 -85.3083 -0.0501609 0.0773833 -0.470922 -11.7212 0.0565788 -0.473878 -34.2557 0.215331 -0.4259 -14.2431 0.215335 -0.425897 74.0776 -39.4107 -130.19 5.22863 18.6327 -23.5111 0.97064 -0.705254 -59.3712 -5.37983 -0.320016 -0.0162396 -92.2541 -24.2314 66.5306 30.5053 25.2996 -62.8575 17.4812 -6.31513 -64.6969 -28.8292 10.9832 -49.1466 65.0182 11.6881 0.610706 -23.6332 7.44747 12.5929 
-95.3116 83.5726 -128.115 -150.413 -78.5247 -157.48 -174.219 36.2988 81.0457 -70.8579 -2.44365 11.2901 37.3967 0.433571 -0.806953 28.7808 5.48165e-006 3.92305e-006 -178.191 25.3884 83.5165 -47.7694 13.5943 0.297038 80.8018 21.1315 7.85157 28.7808 1.43713e-005 2.75681e-005 -1.88959 13.4335 -85.1693 -0.193309 -1.02677 -0.485714 -11.8639 -1.04715 -0.440049 -34.4007 -0.833325 -0.771845 -14.3881 -0.833332 -0.771863 74.3116 -42.4704 -128.069 3.15113 20.5727 -14.2371 1.96713 -0.871929 -51.5312 -5.37983 -0.320016 -0.0162396 -94.0594 -24.9049 63.2411 21.4697 23.1644 -60.128 17.2631 -5.17258 -63.9335 -33.3665 11.8663 -45.7338 57.2157 15.4643 2.50093 -20.3773 10.6381 11.3421 
-95.5317 83.8752 -127.519 -145.92 -76.8595 -152.619 -174.003 34.1374 81.2908 -72.7493 7.19607 16.7446 35.8462 -6.12702 -7.16511 28.7808 5.48165e-006 3.92305e-006 -178.389 23.8678 84.2926 -47.1185 14.7928 0.38166 80.796 20.5464 7.63172 28.7808 1.43713e-005 2.75681e-005 -2.14282 13.2381 -85.2059 0.142721 -1.82875 -0.316279 -11.527 -1.8409 -0.235465 -34.0706 -1.64913 -0.851406 -14.0579 -1.64914 -0.851416 76.145 -45.0787 -123.884 2.11825 22.6229 -6.00435 1.92153 -1.09318 -51.1677 -5.37983 -0.320016 -0.0162396 -95.134 -24.757 61.0403 13.5579 21.4016 -58.5448 19.5601 -3.05911 -63.1173 -33.7553 11.6086 -44.4368 47.9096 18.0862 3.59136 -17.1462 13.3662 11.4647 
-95.8494 84.3509 -126.658 -143.52 -75.4354 -150.174 -173.833 30.9847 81.4441 -76.0931 19.0424 23.1242 36.2082 -9.77821 -10.6387 28.7808 5.48165e-006 3.92305e-006 -178.554 21.9905 84.5291 -46.166 15.991 0.473094 80.9069 20.5257 7.60748 28.7808 1.43713e-005 2.75681e-005 -2.44208 13.0049 -85.3302 0.553606 -2.77889 -0.131383 -11.1144 -2.78196 -0.00886102 -33.6712 -2.61083 -0.961045 -13.6586 -2.61083 -0.96105 81.0188 -45.3051 -116.271 1.96475 24.9498 -0.402627 1.47136 -0.976405 -50.6822 -5.37983 -0.320016 -0.0162396 -96.2888 -25.1866 59.0195 8.24539 19.5028 -57.4527 21.0339 -2.47173 -63.3468 -34.5851 11.4162 -42.8314 36.8226 20.894 7.05326 -13.1886 15.5855 11.3101 
-96.1432 85.1737 -125.633 -141.019 -74.0377 -147.486 -173.462 27.5814 82.5872 -77.7262 24.3362 26.5117 37.8146 -8.20454 -8.89017 28.7808 5.48165e-006 3.92305e-006 -178.724 19.3777 84.8243 -43.8003 18.2423 0.646653 80.4756 21.5237 8.11177 28.7808 1.43713e-005 2.75681e-005 -2.76552 12.785 -85.1815 0.942464 -3.7393 0.508101 -10.7233 -3.7133 0.672405 -33.3011 -3.71889 -0.640817 -13.2884 -3.71888 -0.640812 84.628 -44.5133 -110.877 1.79831 28.1089 4.06551 0.62322 -0.780473 -52.815 -5.37983 -0.320016 -0.0162396 -94.0366 -21.9131 61.6852 1.70884 17.8042 -59.6184 27.1681 0.079066 -62.7792 -33.1894 12.1228 -46.7866 26.2241 22.5665 7.4885 -10.841 18.1316 13.2079 
-96.4128 86.225 -124.631 -136.083 -71.6375 -142.712 -172.359 23.9829 84.4049 -75.0368 21.5854 24.6929 36.0545 -3.26278 -4.5412 28.7808 5.48165e-006 3.92305e-006 -178.855 16.5556 84.6536 -41.049 18.4117 0.689199 79.6243 20.538 7.92017 28.7808 1.43713e-005 2.75681e-005 -2.64825 12.1136 -85.0841 2.27904 -4.04471 0.742923 -9.38594 -4.00809 0.920485 -31.9715 -4.08068 -0.509101 -11.9588 -4.08068 -0.5091 89.7399 -44.9397 -102.486 -3.623 35.0159 10.7826 -0.6226 -0.386421 -53.653 -5.37983 -0.320016 -0.0162396 -99.4673 -25.4921 53.1415 -0.129317 18.2412 -52.3576 30.6714 -0.389063 -63.7492 -33.3876 13.2262 -50.0083 3.28927 21.3859 13.5061 -2.38584 18.785 15.4084 
-96.6706 87.3435 -123.587 -131.833 -68.8138 -138.653 -171.175 19.4905 86.5207 -70.6846 17.3201 22.4283 31.5909 -2.32099 -4.04097 28.7808 5.48165e-006 3.92305e-006 -179.085 13.3433 84.3494 -37.6939 18.027 0.698041 78.6546 20.0102 7.9276 28.7808 1.43713e-005 2.75681e-005 -2.53489 11.5835 -84.9447 3.34629 -4.33765 1.29375 -8.31826 -4.2765 1.4837 -30.9117 -4.52554 -0.0723331 -10.899 -4.52554 -0.0723333 93.9769 -42.6825 -95.9667 -8.94867 41.0114 15.5088 -1.54441 0.101968 -58.3963 -5.37983 -0.320016 -0.0162396 -101.538 -25.1834 49.0946 -3.97374 17.2887 -48.158 28.4767 -1.63151 -64.0801 -34.7917 13.7007 -49.5376 -15.3343 19.1702 15.5892 3.51328 19.9248 19.6573 
-97.0462 88.4296 -122.598 -128.014 -65.6015 -134.857 -169.262 14.044 87.7353 -70.2152 24.406 25.1616 25.7817 -5.9488 -8.79232 28.7808 5.48165e-006 3.92305e-006 -179.344 10.248 84.2151 -34.3802 17.5821 0.695121 77.361 19.2344 7.89149 28.7808 1.43713e-005 2.75681e-005 -2.36103 11.169 -84.9144 4.1952 -4.4378 1.66573 -7.46951 -4.36018 1.85971 -30.065 -4.73282 0.252187 -10.0524 -4.73281 0.25219 97.8295 -38.2554 -89.8967 -13.4215 46.1737 19.0088 -2.0903 1.1467 -61.4891 -5.37983 -0.320016 -0.0162396 -102.792 -24.9753 46.6553 -6.47502 16.6026 -46.0661 27.3059 -1.98831 -64.2734 -33.6665 13.4378 -50.247 -26.1514 17.4744 17.0348 4.72738 20.3824 22.113 
-97.2589 89.3246 -121.704 -125.125 -62.676 -131.919 -167.738 8.8853 88.8026 -67.8306 29.4914 26.0488 19.5729 -8.11805 -12.7378 28.7808 5.48165e-006 3.92305e-006 -179.696 7.52569 83.9507 -31.2186 16.7807 0.672323 76.3045 18.6943 7.88413 28.7808 1.43713e-005 2.75681e-005 -2.25551 10.8315 -85.128 4.90089 -4.56888 1.92982 -6.76376 -4.47954 2.12932 -29.3622 -4.93719 0.46446 -9.34953 -4.93719 0.464444 100.777 -32.9355 -84.7757 -17.9386 51.4457 21.9676 -1.55493 1.37774 -65.1736 -5.37983 -0.320016 -0.0162396 -103.229 -25.1248 45.9682 -7.27845 17.1262 -45.2838 22.0744 -3.13423 -64.7297 -30.0843 11.2674 -48.2919 -32.0767 16.2335 19.4704 4.32878 20.5008 22.4188 
